<?xml version="1.0" encoding="iso-8859-1"?>
<!-- Generator: Adobe Illustrator 19.0.0, SVG Export Plug-In . SVG Version: 6.00 Build 0)  -->
<svg version="1.1" id="Capa_1" xmlns="http://www.w3.org/2000/svg" xmlns:xlink="http://www.w3.org/1999/xlink" x="0px" y="0px"
	 viewBox="0 0 511.997 511.997" style="enable-background:new 0 0 511.997 511.997;" xml:space="preserve">
<linearGradient id="SVGID_1_" gradientUnits="userSpaceOnUse" x1="25.9986" y1="257.9989" x2="485.9986" y2="257.9989" gradientTransform="matrix(1 0 0 -1 0 513.9975)">
	<stop  offset="0" style="stop-color:#80D8FF"/>
	<stop  offset="1" style="stop-color:#EA80FC"/>
</linearGradient>
<path style="fill:url(#SVGID_1_);" d="M356.187,255.999c0,11.047-8.971,20.002-20.038,20.002h-60.113v60.006
	c0,11.047-8.971,20.002-20.038,20.002c-11.067,0-20.038-8.955-20.038-20.002v-60.006h-60.111c-11.067,0-20.038-8.955-20.038-20.002
	c0-11.047,8.971-20.002,20.038-20.002h60.113v-60.006c0-11.047,8.971-20.002,20.038-20.002c11.067,0,20.038,8.955,20.038,20.002
	v60.006h60.113C347.216,235.997,356.187,244.952,356.187,255.999z M485.999,157.348v197.3c0,20.913-11.271,40.4-29.414,50.856
	l-171.171,98.65c-18.147,10.459-40.685,10.457-58.83,0l-171.17-98.65c-18.144-10.455-29.415-29.942-29.415-50.855v-197.3
	c0-20.913,11.271-40.4,29.414-50.856l171.171-98.65c18.143-10.457,40.685-10.457,58.83,0l171.17,98.65
	C474.728,116.948,485.999,136.435,485.999,157.348z M445.924,157.348c0-6.667-3.593-12.879-9.377-16.213l-171.171-98.65
	c-5.784-3.334-12.973-3.333-18.753,0l-171.172,98.65c-5.784,3.333-9.377,9.546-9.377,16.213v197.3
	c0,6.667,3.593,12.879,9.377,16.212l171.171,98.65c5.784,3.334,12.971,3.334,18.753,0l171.172-98.65
	c5.784-3.333,9.377-9.546,9.377-16.212L445.924,157.348L445.924,157.348z"/>
<g>
</g>
<g>
</g>
<g>
</g>
<g>
</g>
<g>
</g>
<g>
</g>
<g>
</g>
<g>
</g>
<g>
</g>
<g>
</g>
<g>
</g>
<g>
</g>
<g>
</g>
<g>
</g>
<g>
</g>
</svg>
